<mxfile host="app.diagrams.net" modified="2020-03-25T15:42:12.810Z" agent="Mozilla/5.0 (Windows NT 10.0; Win64; x64) AppleWebKit/537.36 (KHTML, like Gecko) Chrome/80.0.3987.149 Safari/537.36" etag="v6_lqWwDoCdJcsznQfYP" version="12.8.8" type="github" pages="9">
  <diagram id="juROAu_L4913qJxU7_gi" name="Page-1">
    <mxGraphModel dx="1052" dy="537" grid="1" gridSize="10" guides="1" tooltips="1" connect="1" arrows="1" fold="1" page="1" pageScale="1" pageWidth="1169" pageHeight="827" math="0" shadow="0">
      <root>
        <mxCell id="0" />
        <mxCell id="1" parent="0" />
        <mxCell id="4Dl20UmsCgm7fc1QzoXX-1" value="" style="whiteSpace=wrap;html=1;aspect=fixed;fillColor=#ffe6cc;strokeColor=#d79b00;" parent="1" vertex="1">
          <mxGeometry x="157" y="129" width="80" height="80" as="geometry" />
        </mxCell>
        <mxCell id="4Dl20UmsCgm7fc1QzoXX-2" value="" style="whiteSpace=wrap;html=1;aspect=fixed;fillColor=#ffe6cc;strokeColor=#d79b00;" parent="1" vertex="1">
          <mxGeometry x="167" y="139" width="80" height="80" as="geometry" />
        </mxCell>
        <mxCell id="4Dl20UmsCgm7fc1QzoXX-3" style="edgeStyle=orthogonalEdgeStyle;rounded=0;orthogonalLoop=1;jettySize=auto;html=1;exitX=1;exitY=0.5;exitDx=0;exitDy=0;" parent="1" edge="1">
          <mxGeometry relative="1" as="geometry">
            <mxPoint x="317" y="206" as="targetPoint" />
            <mxPoint x="263" y="206" as="sourcePoint" />
          </mxGeometry>
        </mxCell>
        <mxCell id="4Dl20UmsCgm7fc1QzoXX-4" value="" style="whiteSpace=wrap;html=1;aspect=fixed;fillColor=#ffe6cc;strokeColor=#d79b00;" parent="1" vertex="1">
          <mxGeometry x="177" y="149" width="86" height="86" as="geometry" />
        </mxCell>
        <mxCell id="4Dl20UmsCgm7fc1QzoXX-5" value="" style="whiteSpace=wrap;html=1;aspect=fixed;fillColor=#fa6800;strokeColor=#C73500;fontColor=#ffffff;" parent="1" vertex="1">
          <mxGeometry x="317" y="149" width="60" height="60" as="geometry" />
        </mxCell>
        <mxCell id="4Dl20UmsCgm7fc1QzoXX-6" value="" style="whiteSpace=wrap;html=1;aspect=fixed;fillColor=#fa6800;strokeColor=#C73500;fontColor=#ffffff;" parent="1" vertex="1">
          <mxGeometry x="327" y="165" width="60" height="60" as="geometry" />
        </mxCell>
        <mxCell id="4Dl20UmsCgm7fc1QzoXX-7" value="" style="edgeStyle=orthogonalEdgeStyle;rounded=0;orthogonalLoop=1;jettySize=auto;html=1;" parent="1" edge="1">
          <mxGeometry relative="1" as="geometry">
            <mxPoint x="397" y="207" as="sourcePoint" />
            <mxPoint x="477" y="207" as="targetPoint" />
          </mxGeometry>
        </mxCell>
        <mxCell id="4Dl20UmsCgm7fc1QzoXX-8" value="" style="whiteSpace=wrap;html=1;aspect=fixed;fillColor=#fa6800;strokeColor=#C73500;fontColor=#ffffff;" parent="1" vertex="1">
          <mxGeometry x="337" y="175" width="60" height="60" as="geometry" />
        </mxCell>
        <mxCell id="4Dl20UmsCgm7fc1QzoXX-9" value="" style="whiteSpace=wrap;html=1;aspect=fixed;fillColor=#ffe6cc;strokeColor=#d79b00;" parent="1" vertex="1">
          <mxGeometry x="477" y="129" width="60" height="60" as="geometry" />
        </mxCell>
        <mxCell id="4Dl20UmsCgm7fc1QzoXX-10" value="" style="whiteSpace=wrap;html=1;aspect=fixed;fillColor=#ffe6cc;strokeColor=#d79b00;" parent="1" vertex="1">
          <mxGeometry x="487" y="143" width="60" height="60" as="geometry" />
        </mxCell>
        <mxCell id="4Dl20UmsCgm7fc1QzoXX-11" value="" style="whiteSpace=wrap;html=1;aspect=fixed;fillColor=#ffe6cc;strokeColor=#d79b00;" parent="1" vertex="1">
          <mxGeometry x="497" y="153" width="60" height="60" as="geometry" />
        </mxCell>
        <mxCell id="4Dl20UmsCgm7fc1QzoXX-12" value="" style="whiteSpace=wrap;html=1;aspect=fixed;fillColor=#ffe6cc;strokeColor=#d79b00;" parent="1" vertex="1">
          <mxGeometry x="507" y="163" width="60" height="60" as="geometry" />
        </mxCell>
        <mxCell id="4Dl20UmsCgm7fc1QzoXX-13" value="" style="whiteSpace=wrap;html=1;aspect=fixed;fillColor=#ffe6cc;strokeColor=#d79b00;" parent="1" vertex="1">
          <mxGeometry x="517" y="173" width="60" height="60" as="geometry" />
        </mxCell>
        <mxCell id="4Dl20UmsCgm7fc1QzoXX-14" value="" style="edgeStyle=orthogonalEdgeStyle;rounded=0;orthogonalLoop=1;jettySize=auto;html=1;" parent="1" edge="1">
          <mxGeometry relative="1" as="geometry">
            <mxPoint x="587" y="210" as="sourcePoint" />
            <mxPoint x="667" y="210" as="targetPoint" />
          </mxGeometry>
        </mxCell>
        <mxCell id="4Dl20UmsCgm7fc1QzoXX-15" value="" style="whiteSpace=wrap;html=1;aspect=fixed;fillColor=#ffe6cc;strokeColor=#d79b00;" parent="1" vertex="1">
          <mxGeometry x="527" y="183" width="60" height="60" as="geometry" />
        </mxCell>
        <mxCell id="4Dl20UmsCgm7fc1QzoXX-16" value="" style="whiteSpace=wrap;html=1;aspect=fixed;fillColor=#fa6800;strokeColor=#C73500;fontColor=#ffffff;" parent="1" vertex="1">
          <mxGeometry x="667" y="163" width="60" height="60" as="geometry" />
        </mxCell>
        <mxCell id="4Dl20UmsCgm7fc1QzoXX-17" value="" style="whiteSpace=wrap;html=1;aspect=fixed;fillColor=#fa6800;strokeColor=#C73500;fontColor=#ffffff;" parent="1" vertex="1">
          <mxGeometry x="677" y="173" width="60" height="60" as="geometry" />
        </mxCell>
        <mxCell id="4Dl20UmsCgm7fc1QzoXX-18" value="" style="whiteSpace=wrap;html=1;aspect=fixed;fillColor=#fa6800;strokeColor=#C73500;fontColor=#ffffff;" parent="1" vertex="1">
          <mxGeometry x="687" y="183" width="60" height="60" as="geometry" />
        </mxCell>
        <mxCell id="4Dl20UmsCgm7fc1QzoXX-19" value="" style="edgeStyle=orthogonalEdgeStyle;rounded=0;orthogonalLoop=1;jettySize=auto;html=1;" parent="1" edge="1">
          <mxGeometry relative="1" as="geometry">
            <mxPoint x="756.9999999999998" y="210" as="sourcePoint" />
            <mxPoint x="837.0000000000002" y="210" as="targetPoint" />
          </mxGeometry>
        </mxCell>
        <mxCell id="4Dl20UmsCgm7fc1QzoXX-20" value="" style="whiteSpace=wrap;html=1;aspect=fixed;fillColor=#fa6800;strokeColor=#C73500;fontColor=#ffffff;" parent="1" vertex="1">
          <mxGeometry x="697" y="193" width="60" height="60" as="geometry" />
        </mxCell>
        <mxCell id="4Dl20UmsCgm7fc1QzoXX-21" value="" style="rounded=0;whiteSpace=wrap;html=1;direction=south;shadow=1;comic=0;glass=0;fillColor=#dae8fc;strokeColor=#6c8ebf;" parent="1" vertex="1">
          <mxGeometry x="847" y="40" width="30" height="326" as="geometry" />
        </mxCell>
        <mxCell id="4Dl20UmsCgm7fc1QzoXX-22" value="" style="ellipse;whiteSpace=wrap;html=1;aspect=fixed;rounded=0;shadow=1;glass=0;comic=0;fillColor=#ffe6cc;strokeColor=#d79b00;" parent="1" vertex="1">
          <mxGeometry x="852" y="59" width="20" height="20" as="geometry" />
        </mxCell>
        <mxCell id="4Dl20UmsCgm7fc1QzoXX-23" value="" style="ellipse;whiteSpace=wrap;html=1;aspect=fixed;rounded=0;shadow=1;glass=0;comic=0;fillColor=#ffe6cc;strokeColor=#d79b00;" parent="1" vertex="1">
          <mxGeometry x="852" y="100" width="20" height="20" as="geometry" />
        </mxCell>
        <mxCell id="4Dl20UmsCgm7fc1QzoXX-24" value="" style="ellipse;whiteSpace=wrap;html=1;aspect=fixed;rounded=0;shadow=1;glass=0;comic=0;fillColor=#ffe6cc;strokeColor=#d79b00;" parent="1" vertex="1">
          <mxGeometry x="852" y="139" width="20" height="20" as="geometry" />
        </mxCell>
        <mxCell id="4Dl20UmsCgm7fc1QzoXX-25" value="" style="ellipse;whiteSpace=wrap;html=1;aspect=fixed;rounded=0;shadow=1;glass=0;comic=0;fillColor=#ffe6cc;strokeColor=#d79b00;" parent="1" vertex="1">
          <mxGeometry x="852" y="182" width="20" height="20" as="geometry" />
        </mxCell>
        <mxCell id="4Dl20UmsCgm7fc1QzoXX-26" value="" style="ellipse;whiteSpace=wrap;html=1;aspect=fixed;rounded=0;shadow=1;glass=0;comic=0;fillColor=#ffe6cc;strokeColor=#d79b00;" parent="1" vertex="1">
          <mxGeometry x="852" y="225" width="20" height="20" as="geometry" />
        </mxCell>
        <mxCell id="4Dl20UmsCgm7fc1QzoXX-27" value="" style="ellipse;whiteSpace=wrap;html=1;aspect=fixed;rounded=0;shadow=1;glass=0;comic=0;fillColor=#ffe6cc;strokeColor=#d79b00;" parent="1" vertex="1">
          <mxGeometry x="852" y="269" width="20" height="20" as="geometry" />
        </mxCell>
        <mxCell id="4Dl20UmsCgm7fc1QzoXX-28" value="" style="ellipse;whiteSpace=wrap;html=1;aspect=fixed;rounded=0;shadow=1;glass=0;comic=0;fillColor=#ffe6cc;strokeColor=#d79b00;" parent="1" vertex="1">
          <mxGeometry x="852" y="309" width="20" height="20" as="geometry" />
        </mxCell>
        <mxCell id="4Dl20UmsCgm7fc1QzoXX-29" value="" style="rounded=0;whiteSpace=wrap;html=1;direction=south;shadow=1;comic=0;glass=0;fillColor=#dae8fc;strokeColor=#6c8ebf;" parent="1" vertex="1">
          <mxGeometry x="967" y="42" width="30" height="326" as="geometry" />
        </mxCell>
        <mxCell id="4Dl20UmsCgm7fc1QzoXX-30" value="" style="ellipse;whiteSpace=wrap;html=1;aspect=fixed;rounded=0;shadow=1;glass=0;comic=0;fillColor=#ffe6cc;strokeColor=#d79b00;" parent="1" vertex="1">
          <mxGeometry x="972" y="61" width="20" height="20" as="geometry" />
        </mxCell>
        <mxCell id="4Dl20UmsCgm7fc1QzoXX-31" value="" style="ellipse;whiteSpace=wrap;html=1;aspect=fixed;rounded=0;shadow=1;glass=0;comic=0;fillColor=#ffe6cc;strokeColor=#d79b00;" parent="1" vertex="1">
          <mxGeometry x="972" y="101" width="20" height="20" as="geometry" />
        </mxCell>
        <mxCell id="4Dl20UmsCgm7fc1QzoXX-32" value="" style="ellipse;whiteSpace=wrap;html=1;aspect=fixed;rounded=0;shadow=1;glass=0;comic=0;fillColor=#ffe6cc;strokeColor=#d79b00;" parent="1" vertex="1">
          <mxGeometry x="972" y="141" width="20" height="20" as="geometry" />
        </mxCell>
        <mxCell id="4Dl20UmsCgm7fc1QzoXX-33" value="" style="ellipse;whiteSpace=wrap;html=1;aspect=fixed;rounded=0;shadow=1;glass=0;comic=0;fillColor=#ffe6cc;strokeColor=#d79b00;" parent="1" vertex="1">
          <mxGeometry x="972" y="184" width="20" height="20" as="geometry" />
        </mxCell>
        <mxCell id="4Dl20UmsCgm7fc1QzoXX-34" value="" style="ellipse;whiteSpace=wrap;html=1;aspect=fixed;rounded=0;shadow=1;glass=0;comic=0;fillColor=#ffe6cc;strokeColor=#d79b00;" parent="1" vertex="1">
          <mxGeometry x="972" y="227" width="20" height="20" as="geometry" />
        </mxCell>
        <mxCell id="4Dl20UmsCgm7fc1QzoXX-35" value="" style="ellipse;whiteSpace=wrap;html=1;aspect=fixed;rounded=0;shadow=1;glass=0;comic=0;fillColor=#ffe6cc;strokeColor=#d79b00;" parent="1" vertex="1">
          <mxGeometry x="972" y="271" width="20" height="20" as="geometry" />
        </mxCell>
        <mxCell id="4Dl20UmsCgm7fc1QzoXX-36" value="" style="ellipse;whiteSpace=wrap;html=1;aspect=fixed;rounded=0;shadow=1;glass=0;comic=0;fillColor=#ffe6cc;strokeColor=#d79b00;" parent="1" vertex="1">
          <mxGeometry x="972" y="311" width="20" height="20" as="geometry" />
        </mxCell>
        <mxCell id="4Dl20UmsCgm7fc1QzoXX-37" value="&lt;font face=&quot;Times New Roman&quot;&gt;FC&lt;/font&gt;" style="text;html=1;strokeColor=#6c8ebf;fillColor=#dae8fc;align=center;verticalAlign=middle;whiteSpace=wrap;rounded=0;shadow=1;glass=0;comic=0;fontSize=22;" parent="1" vertex="1">
          <mxGeometry x="897" y="173" width="40" height="20" as="geometry" />
        </mxCell>
        <mxCell id="4Dl20UmsCgm7fc1QzoXX-38" value="SoftMax" style="text;html=1;strokeColor=none;fillColor=none;align=center;verticalAlign=middle;whiteSpace=wrap;rounded=0;shadow=1;glass=0;comic=0;fontSize=22;fontFamily=Times New Roman;" parent="1" vertex="1">
          <mxGeometry x="967" y="389" width="40" height="20" as="geometry" />
        </mxCell>
        <mxCell id="4Dl20UmsCgm7fc1QzoXX-39" style="edgeStyle=orthogonalEdgeStyle;rounded=0;orthogonalLoop=1;jettySize=auto;html=1;fontSize=22;" parent="1" edge="1">
          <mxGeometry relative="1" as="geometry">
            <mxPoint x="1067.0000000000002" y="208" as="targetPoint" />
            <mxPoint x="877.0000000000002" y="208" as="sourcePoint" />
          </mxGeometry>
        </mxCell>
        <mxCell id="4Dl20UmsCgm7fc1QzoXX-40" value="&lt;font face=&quot;Times New Roman&quot;&gt;Y&#39;&lt;/font&gt;" style="text;html=1;strokeColor=none;fillColor=none;align=center;verticalAlign=middle;whiteSpace=wrap;rounded=0;shadow=1;glass=0;comic=0;fontSize=22;" parent="1" vertex="1">
          <mxGeometry x="1087" y="199" width="40" height="20" as="geometry" />
        </mxCell>
        <mxCell id="4Dl20UmsCgm7fc1QzoXX-41" value="Conv1" style="text;html=1;align=center;verticalAlign=middle;whiteSpace=wrap;rounded=0;shadow=1;glass=0;comic=0;fontSize=22;fontFamily=Times New Roman;" parent="1" vertex="1">
          <mxGeometry x="137" y="91" width="40" height="20" as="geometry" />
        </mxCell>
        <mxCell id="4Dl20UmsCgm7fc1QzoXX-42" value="Pooling" style="text;html=1;strokeColor=none;fillColor=none;align=center;verticalAlign=middle;whiteSpace=wrap;rounded=0;shadow=1;glass=0;comic=0;fontSize=22;fontFamily=Times New Roman;" parent="1" vertex="1">
          <mxGeometry x="286" y="91" width="40" height="20" as="geometry" />
        </mxCell>
        <mxCell id="4Dl20UmsCgm7fc1QzoXX-43" value="Conv2" style="text;html=1;strokeColor=none;fillColor=none;align=center;verticalAlign=middle;whiteSpace=wrap;rounded=0;shadow=1;glass=0;comic=0;fontSize=22;fontFamily=Times New Roman;" parent="1" vertex="1">
          <mxGeometry x="437" y="91" width="40" height="20" as="geometry" />
        </mxCell>
        <mxCell id="4Dl20UmsCgm7fc1QzoXX-44" value="Pooling" style="text;html=1;align=center;verticalAlign=middle;whiteSpace=wrap;rounded=0;shadow=1;glass=0;comic=0;fontSize=22;fontFamily=Times New Roman;" parent="1" vertex="1">
          <mxGeometry x="591" y="65" width="40" height="72" as="geometry" />
        </mxCell>
        <mxCell id="4Dl20UmsCgm7fc1QzoXX-45" value="" style="edgeStyle=orthogonalEdgeStyle;rounded=0;orthogonalLoop=1;jettySize=auto;html=1;fontSize=22;" parent="1" source="4Dl20UmsCgm7fc1QzoXX-46" target="4Dl20UmsCgm7fc1QzoXX-1" edge="1">
          <mxGeometry relative="1" as="geometry">
            <Array as="points">
              <mxPoint x="137" y="205" />
              <mxPoint x="137" y="169" />
            </Array>
          </mxGeometry>
        </mxCell>
        <mxCell id="4Dl20UmsCgm7fc1QzoXX-46" value="X" style="text;html=1;strokeColor=none;fillColor=none;align=center;verticalAlign=middle;whiteSpace=wrap;rounded=0;shadow=1;glass=0;comic=0;fontSize=22;fontFamily=Times New Roman;" parent="1" vertex="1">
          <mxGeometry x="40" y="198" width="30" height="20" as="geometry" />
        </mxCell>
        <mxCell id="4Dl20UmsCgm7fc1QzoXX-47" value="" style="rounded=0;whiteSpace=wrap;html=1;shadow=0;glass=0;comic=0;fontSize=22;gradientColor=#ffffff;gradientDirection=north;fillColor=none;strokeColor=#4D4D4D;fontFamily=Times New Roman;" parent="1" vertex="1">
          <mxGeometry x="110" y="61" width="300" height="254" as="geometry" />
        </mxCell>
        <mxCell id="4Dl20UmsCgm7fc1QzoXX-48" value="" style="rounded=0;whiteSpace=wrap;html=1;shadow=0;glass=0;comic=0;fontSize=22;gradientColor=#ffffff;gradientDirection=north;fillColor=none;strokeColor=#4D4D4D;" parent="1" vertex="1">
          <mxGeometry x="420" y="59" width="350" height="254" as="geometry" />
        </mxCell>
      </root>
    </mxGraphModel>
  </diagram>
  <diagram name="Page-1" id="aT3RGGb7aD3YoCO7YxSE">
    <mxGraphModel dx="1052" dy="537" grid="1" gridSize="10" guides="1" tooltips="1" connect="1" arrows="1" fold="1" page="1" pageScale="1" pageWidth="1100" pageHeight="850" background="#ffffff" math="1" shadow="0">
      <root>
        <mxCell id="0" />
        <mxCell id="1" parent="0" />
        <mxCell id="tquetNArDOnyDGNFUCes-10" value="" style="rounded=1;whiteSpace=wrap;html=1;fillColor=#dae8fc;strokeColor=#6c8ebf;" parent="1" vertex="1">
          <mxGeometry x="210" y="240" width="450" height="280" as="geometry" />
        </mxCell>
        <mxCell id="tquetNArDOnyDGNFUCes-15" style="edgeStyle=orthogonalEdgeStyle;rounded=1;orthogonalLoop=1;jettySize=auto;html=1;endSize=10;strokeWidth=4;" parent="1" source="tquetNArDOnyDGNFUCes-23" edge="1">
          <mxGeometry relative="1" as="geometry">
            <mxPoint x="760" y="290" as="targetPoint" />
            <mxPoint x="150" y="290" as="sourcePoint" />
            <Array as="points">
              <mxPoint x="660" y="290" />
              <mxPoint x="660" y="290" />
            </Array>
          </mxGeometry>
        </mxCell>
        <mxCell id="tquetNArDOnyDGNFUCes-16" value="" style="edgeStyle=segmentEdgeStyle;endArrow=classic;html=1;strokeWidth=4;endSize=10;" parent="1" edge="1">
          <mxGeometry width="50" height="50" relative="1" as="geometry">
            <mxPoint x="630" y="290" as="sourcePoint" />
            <mxPoint x="680" y="200" as="targetPoint" />
          </mxGeometry>
        </mxCell>
        <mxCell id="tquetNArDOnyDGNFUCes-17" value="" style="edgeStyle=elbowEdgeStyle;elbow=vertical;endArrow=classic;html=1;strokeWidth=4;" parent="1" source="tquetNArDOnyDGNFUCes-39" edge="1">
          <mxGeometry width="50" height="50" relative="1" as="geometry">
            <mxPoint x="260" y="570" as="sourcePoint" />
            <mxPoint x="580" y="310" as="targetPoint" />
            <Array as="points">
              <mxPoint x="450" y="460" />
              <mxPoint x="400" y="470" />
              <mxPoint x="350" y="494" />
            </Array>
          </mxGeometry>
        </mxCell>
        <mxCell id="tquetNArDOnyDGNFUCes-18" value="" style="ellipse;whiteSpace=wrap;html=1;aspect=fixed;fillColor=#f8cecc;strokeColor=#b85450;" parent="1" vertex="1">
          <mxGeometry x="463" y="270" width="40" height="40" as="geometry" />
        </mxCell>
        <mxCell id="tquetNArDOnyDGNFUCes-22" style="edgeStyle=orthogonalEdgeStyle;rounded=1;orthogonalLoop=1;jettySize=auto;html=1;endSize=10;strokeWidth=4;endArrow=none;endFill=0;" parent="1" target="tquetNArDOnyDGNFUCes-18" edge="1">
          <mxGeometry relative="1" as="geometry">
            <mxPoint x="759.9999999999998" y="290" as="targetPoint" />
            <mxPoint x="150" y="290" as="sourcePoint" />
            <Array as="points" />
          </mxGeometry>
        </mxCell>
        <mxCell id="tquetNArDOnyDGNFUCes-23" value="" style="ellipse;whiteSpace=wrap;html=1;aspect=fixed;fillColor=#f8cecc;strokeColor=#b85450;" parent="1" vertex="1">
          <mxGeometry x="560" y="270" width="40" height="40" as="geometry" />
        </mxCell>
        <mxCell id="tquetNArDOnyDGNFUCes-24" style="edgeStyle=orthogonalEdgeStyle;rounded=1;orthogonalLoop=1;jettySize=auto;html=1;endSize=10;strokeWidth=4;endArrow=none;endFill=0;" parent="1" source="tquetNArDOnyDGNFUCes-18" target="tquetNArDOnyDGNFUCes-23" edge="1">
          <mxGeometry relative="1" as="geometry">
            <mxPoint x="759.9999999999998" y="290" as="targetPoint" />
            <mxPoint x="490" y="290" as="sourcePoint" />
            <Array as="points" />
          </mxGeometry>
        </mxCell>
        <mxCell id="tquetNArDOnyDGNFUCes-38" value="" style="edgeStyle=segmentEdgeStyle;endArrow=classic;html=1;strokeColor=#000000;strokeWidth=4;startSize=1;" parent="1" target="tquetNArDOnyDGNFUCes-39" edge="1">
          <mxGeometry width="50" height="50" relative="1" as="geometry">
            <mxPoint x="483" y="425" as="sourcePoint" />
            <mxPoint x="533" y="375" as="targetPoint" />
            <Array as="points">
              <mxPoint x="483" y="375" />
            </Array>
          </mxGeometry>
        </mxCell>
        <mxCell id="tquetNArDOnyDGNFUCes-39" value="" style="ellipse;whiteSpace=wrap;html=1;aspect=fixed;fillColor=#f8cecc;strokeColor=#b85450;" parent="1" vertex="1">
          <mxGeometry x="560" y="360" width="40" height="40" as="geometry" />
        </mxCell>
        <mxCell id="tquetNArDOnyDGNFUCes-40" value="" style="edgeStyle=elbowEdgeStyle;elbow=vertical;endArrow=classic;html=1;strokeWidth=4;" parent="1" target="tquetNArDOnyDGNFUCes-39" edge="1">
          <mxGeometry width="50" height="50" relative="1" as="geometry">
            <mxPoint x="260" y="570" as="sourcePoint" />
            <mxPoint x="580" y="310" as="targetPoint" />
            <Array as="points" />
          </mxGeometry>
        </mxCell>
        <mxCell id="tquetNArDOnyDGNFUCes-53" value="" style="edgeStyle=elbowEdgeStyle;elbow=horizontal;endArrow=none;html=1;strokeColor=#000000;strokeWidth=4;endFill=0;" parent="1" target="tquetNArDOnyDGNFUCes-51" edge="1">
          <mxGeometry width="50" height="50" relative="1" as="geometry">
            <mxPoint x="260" y="290" as="sourcePoint" />
            <mxPoint x="410" y="460" as="targetPoint" />
            <Array as="points">
              <mxPoint x="320" y="330" />
            </Array>
          </mxGeometry>
        </mxCell>
        <mxCell id="tquetNArDOnyDGNFUCes-56" value="" style="edgeStyle=elbowEdgeStyle;elbow=horizontal;endArrow=classic;html=1;strokeColor=#000000;strokeWidth=4;entryX=1;entryY=0.5;entryDx=0;entryDy=0;" parent="1" target="tquetNArDOnyDGNFUCes-51" edge="1">
          <mxGeometry width="50" height="50" relative="1" as="geometry">
            <mxPoint x="410" y="460" as="sourcePoint" />
            <mxPoint x="460" y="410" as="targetPoint" />
            <Array as="points">
              <mxPoint x="435" y="440" />
            </Array>
          </mxGeometry>
        </mxCell>
        <mxCell id="tquetNArDOnyDGNFUCes-47" value="" style="edgeStyle=elbowEdgeStyle;elbow=horizontal;endArrow=none;html=1;strokeColor=#000000;strokeWidth=4;endFill=0;" parent="1" edge="1">
          <mxGeometry width="50" height="50" relative="1" as="geometry">
            <mxPoint x="319" y="395.36491673103706" as="sourcePoint" />
            <mxPoint x="319" y="486" as="targetPoint" />
            <Array as="points" />
          </mxGeometry>
        </mxCell>
        <mxCell id="tquetNArDOnyDGNFUCes-27" value="" style="edgeStyle=elbowEdgeStyle;elbow=vertical;endArrow=classic;html=1;strokeWidth=4;strokeColor=#000000;startArrow=none;startFill=0;" parent="1" edge="1">
          <mxGeometry width="50" height="50" relative="1" as="geometry">
            <mxPoint x="254" y="290" as="sourcePoint" />
            <mxPoint x="484" y="310" as="targetPoint" />
            <Array as="points">
              <mxPoint x="370" y="460" />
            </Array>
          </mxGeometry>
        </mxCell>
        <mxCell id="tquetNArDOnyDGNFUCes-51" value="" style="ellipse;whiteSpace=wrap;html=1;aspect=fixed;fillColor=#f8cecc;strokeColor=#b85450;" parent="1" vertex="1">
          <mxGeometry x="300" y="360" width="40" height="40" as="geometry" />
        </mxCell>
        <mxCell id="tquetNArDOnyDGNFUCes-62" value="" style="edgeStyle=elbowEdgeStyle;elbow=horizontal;endArrow=none;html=1;strokeColor=#000000;strokeWidth=4;endFill=0;" parent="1" edge="1">
          <mxGeometry width="50" height="50" relative="1" as="geometry">
            <mxPoint x="263" y="460" as="sourcePoint" />
            <mxPoint x="258" y="500" as="targetPoint" />
          </mxGeometry>
        </mxCell>
        <mxCell id="tquetNArDOnyDGNFUCes-71" value="" style="rounded=0;whiteSpace=wrap;html=1;fillColor=#fff2cc;aspect=fixed;strokeColor=#d6b656;" parent="1" vertex="1">
          <mxGeometry x="463" y="415" width="40" height="20" as="geometry" />
        </mxCell>
        <mxCell id="tquetNArDOnyDGNFUCes-74" value="" style="rounded=0;whiteSpace=wrap;html=1;fillColor=#fff2cc;aspect=fixed;strokeColor=#d6b656;" parent="1" vertex="1">
          <mxGeometry x="560" y="425" width="40" height="20" as="geometry" />
        </mxCell>
        <mxCell id="tquetNArDOnyDGNFUCes-75" value="" style="rounded=0;whiteSpace=wrap;html=1;fillColor=#fff2cc;aspect=fixed;strokeColor=#d6b656;" parent="1" vertex="1">
          <mxGeometry x="410" y="415" width="40" height="20" as="geometry" />
        </mxCell>
        <mxCell id="tquetNArDOnyDGNFUCes-80" value="" style="ellipse;whiteSpace=wrap;html=1;fillColor=#f8cecc;strokeColor=#b85450;" parent="1" vertex="1">
          <mxGeometry x="461" y="335" width="43" height="20" as="geometry" />
        </mxCell>
        <mxCell id="tquetNArDOnyDGNFUCes-82" value="X" style="text;html=1;strokeColor=none;fillColor=none;align=center;verticalAlign=middle;whiteSpace=wrap;rounded=0;fontSize=24;fontFamily=Times New Roman;" parent="1" vertex="1">
          <mxGeometry x="300" y="370" width="40" height="20" as="geometry" />
        </mxCell>
        <mxCell id="tquetNArDOnyDGNFUCes-83" value="X" style="text;html=1;strokeColor=none;fillColor=none;align=center;verticalAlign=middle;whiteSpace=wrap;rounded=0;fontSize=24;fontFamily=Times New Roman;" parent="1" vertex="1">
          <mxGeometry x="463" y="280" width="40" height="20" as="geometry" />
        </mxCell>
        <mxCell id="tquetNArDOnyDGNFUCes-84" value="X" style="text;html=1;strokeColor=none;fillColor=none;align=center;verticalAlign=middle;whiteSpace=wrap;rounded=0;fontSize=24;fontFamily=Times New Roman;" parent="1" vertex="1">
          <mxGeometry x="560" y="370" width="40" height="20" as="geometry" />
        </mxCell>
        <mxCell id="tquetNArDOnyDGNFUCes-85" value="+" style="text;html=1;strokeColor=none;fillColor=none;align=center;verticalAlign=middle;whiteSpace=wrap;rounded=0;fontSize=35;fontFamily=Times New Roman;" parent="1" vertex="1">
          <mxGeometry x="560" y="280" width="40" height="20" as="geometry" />
        </mxCell>
        <mxCell id="tquetNArDOnyDGNFUCes-86" value="1-" style="text;html=1;strokeColor=none;fillColor=none;align=center;verticalAlign=middle;whiteSpace=wrap;rounded=0;fontSize=22;fontFamily=Times New Roman;" parent="1" vertex="1">
          <mxGeometry x="462.5" y="335" width="40" height="20" as="geometry" />
        </mxCell>
        <mxCell id="tquetNArDOnyDGNFUCes-89" value="tanh" style="text;html=1;strokeColor=none;fillColor=none;align=center;verticalAlign=middle;whiteSpace=wrap;rounded=0;fontSize=16;fontFamily=Times New Roman;" parent="1" vertex="1">
          <mxGeometry x="560" y="425" width="40" height="20" as="geometry" />
        </mxCell>
        <mxCell id="tquetNArDOnyDGNFUCes-93" value="&lt;span style=&quot;color: rgb(51 , 51 , 51) ; font-size: 22px ; white-space: normal&quot;&gt;σ&lt;/span&gt;" style="text;html=1;strokeColor=none;fillColor=none;align=center;verticalAlign=middle;whiteSpace=wrap;rounded=0;fontSize=22;fontFamily=Times New Roman;" parent="1" vertex="1">
          <mxGeometry x="410" y="414" width="40" height="20" as="geometry" />
        </mxCell>
        <mxCell id="tquetNArDOnyDGNFUCes-94" value="&lt;span style=&quot;color: rgb(51 , 51 , 51) ; font-size: 22px ; white-space: normal&quot;&gt;σ&lt;/span&gt;" style="text;html=1;strokeColor=none;fillColor=none;align=center;verticalAlign=middle;whiteSpace=wrap;rounded=0;fontSize=22;fontFamily=Times New Roman;" parent="1" vertex="1">
          <mxGeometry x="462.5" y="415" width="40" height="20" as="geometry" />
        </mxCell>
        <mxCell id="tquetNArDOnyDGNFUCes-95" value="&lt;h6&gt;&lt;span style=&quot;font-weight: normal&quot;&gt;&lt;span style=&quot;font-size: 26px&quot;&gt;h&lt;/span&gt;&lt;sub&gt;&lt;font style=&quot;font-size: 16px&quot;&gt;t-1&lt;/font&gt;&lt;/sub&gt;&lt;/span&gt;&lt;/h6&gt;" style="text;html=1;strokeColor=none;fillColor=none;align=center;verticalAlign=middle;whiteSpace=wrap;rounded=0;fontSize=26;fontFamily=Times New Roman;fontStyle=0;labelBorderColor=none;labelBackgroundColor=none;fontColor=#4D4D4D;" parent="1" vertex="1">
          <mxGeometry x="100" y="260" width="90" height="20" as="geometry" />
        </mxCell>
        <mxCell id="tquetNArDOnyDGNFUCes-98" value="&lt;h6&gt;&lt;span style=&quot;font-weight: normal&quot;&gt;&lt;span style=&quot;font-size: 26px&quot;&gt;h&lt;/span&gt;&lt;sub&gt;&lt;font style=&quot;font-size: 16px&quot;&gt;t&lt;/font&gt;&lt;/sub&gt;&lt;/span&gt;&lt;/h6&gt;" style="text;html=1;strokeColor=none;fillColor=none;align=center;verticalAlign=middle;whiteSpace=wrap;rounded=0;fontSize=26;fontFamily=Times New Roman;fontStyle=0;labelBorderColor=none;labelBackgroundColor=none;fontColor=#4D4D4D;" parent="1" vertex="1">
          <mxGeometry x="600" y="200" width="90" height="20" as="geometry" />
        </mxCell>
        <mxCell id="tquetNArDOnyDGNFUCes-99" value="&lt;h6&gt;&lt;span style=&quot;font-weight: normal&quot;&gt;&lt;sub&gt;&lt;font style=&quot;font-size: 26px&quot;&gt;x&lt;/font&gt;&lt;font style=&quot;font-size: 16px&quot;&gt;t&lt;/font&gt;&lt;/sub&gt;&lt;/span&gt;&lt;/h6&gt;" style="text;html=1;strokeColor=none;fillColor=none;align=center;verticalAlign=middle;whiteSpace=wrap;rounded=0;fontSize=26;fontFamily=Times New Roman;fontStyle=0;labelBorderColor=none;labelBackgroundColor=none;fontColor=#4D4D4D;" parent="1" vertex="1">
          <mxGeometry x="190" y="550" width="90" height="20" as="geometry" />
        </mxCell>
        <mxCell id="tquetNArDOnyDGNFUCes-102" value="&lt;h6&gt;&lt;span style=&quot;font-weight: normal&quot;&gt;&lt;sub&gt;&lt;font face=&quot;Garamond&quot;&gt;&lt;font style=&quot;font-size: 26px&quot;&gt;r&lt;/font&gt;&lt;font style=&quot;font-size: 16px&quot;&gt;t&lt;/font&gt;&lt;/font&gt;&lt;/sub&gt;&lt;/span&gt;&lt;/h6&gt;" style="text;html=1;strokeColor=none;fillColor=none;align=center;verticalAlign=middle;whiteSpace=wrap;rounded=0;fontSize=26;fontFamily=Times New Roman;fontStyle=0;labelBorderColor=none;labelBackgroundColor=none;fontColor=#4D4D4D;" parent="1" vertex="1">
          <mxGeometry x="350" y="390" width="90" height="20" as="geometry" />
        </mxCell>
        <mxCell id="tquetNArDOnyDGNFUCes-103" value="&lt;h6&gt;&lt;span style=&quot;font-weight: normal&quot;&gt;&lt;sub&gt;&lt;font face=&quot;Garamond&quot;&gt;&lt;font style=&quot;font-size: 26px&quot;&gt;z&lt;/font&gt;&lt;font style=&quot;font-size: 16px&quot;&gt;t&lt;/font&gt;&lt;/font&gt;&lt;/sub&gt;&lt;/span&gt;&lt;/h6&gt;" style="text;html=1;strokeColor=none;fillColor=none;align=center;verticalAlign=middle;whiteSpace=wrap;rounded=0;fontSize=26;fontFamily=Times New Roman;fontStyle=0;labelBorderColor=none;labelBackgroundColor=none;fontColor=#4D4D4D;" parent="1" vertex="1">
          <mxGeometry x="460" y="390" width="90" height="20" as="geometry" />
        </mxCell>
        <mxCell id="tquetNArDOnyDGNFUCes-106" value="&lt;font style=&quot;font-size: 21px&quot;&gt;&lt;span&gt;h&lt;/span&gt;&lt;sub&gt;t&lt;/sub&gt;&lt;span&gt;&amp;nbsp;̃&lt;/span&gt;&lt;/font&gt;" style="text;html=1;fontSize=26;fontFamily=Times New Roman;fontColor=#4D4D4D;" parent="1" vertex="1">
          <mxGeometry x="600" y="375" width="40" height="50" as="geometry" />
        </mxCell>
      </root>
    </mxGraphModel>
  </diagram>
  <diagram name="Page-2" id="RI4aWHSRx3hzmGdt1kA3">
    <mxGraphModel dx="1052" dy="537" grid="1" gridSize="10" guides="1" tooltips="1" connect="1" arrows="1" fold="1" page="1" pageScale="1" pageWidth="827" pageHeight="1169" math="0" shadow="0">
      <root>
        <mxCell id="R4YcDA2mRaz1hFPC-GBh-0" />
        <mxCell id="R4YcDA2mRaz1hFPC-GBh-1" parent="R4YcDA2mRaz1hFPC-GBh-0" />
      </root>
    </mxGraphModel>
  </diagram>
  <diagram name="Page-1" id="nBL2jfzkH_U0dr_dFbfJ">
    <mxGraphModel dx="1052" dy="537" grid="1" gridSize="10" guides="1" tooltips="1" connect="1" arrows="1" fold="1" page="1" pageScale="1" pageWidth="1100" pageHeight="850" background="#ffffff" math="1" shadow="0">
      <root>
        <mxCell id="0" />
        <mxCell id="1" parent="0" />
        <mxCell id="tquetNArDOnyDGNFUCes-10" value="" style="rounded=1;whiteSpace=wrap;html=1;fillColor=#dae8fc;strokeColor=#6c8ebf;" parent="1" vertex="1">
          <mxGeometry x="210" y="240" width="450" height="280" as="geometry" />
        </mxCell>
        <mxCell id="tquetNArDOnyDGNFUCes-15" style="edgeStyle=orthogonalEdgeStyle;rounded=1;orthogonalLoop=1;jettySize=auto;html=1;endSize=10;strokeWidth=4;" parent="1" source="tquetNArDOnyDGNFUCes-23" edge="1">
          <mxGeometry relative="1" as="geometry">
            <mxPoint x="760" y="290" as="targetPoint" />
            <mxPoint x="150" y="290" as="sourcePoint" />
            <Array as="points">
              <mxPoint x="660" y="290" />
              <mxPoint x="660" y="290" />
            </Array>
          </mxGeometry>
        </mxCell>
        <mxCell id="tquetNArDOnyDGNFUCes-16" value="" style="edgeStyle=segmentEdgeStyle;endArrow=classic;html=1;strokeWidth=4;endSize=10;" parent="1" edge="1">
          <mxGeometry width="50" height="50" relative="1" as="geometry">
            <mxPoint x="630" y="290" as="sourcePoint" />
            <mxPoint x="680" y="200" as="targetPoint" />
          </mxGeometry>
        </mxCell>
        <mxCell id="tquetNArDOnyDGNFUCes-17" value="" style="edgeStyle=elbowEdgeStyle;elbow=vertical;endArrow=classic;html=1;strokeWidth=4;" parent="1" source="tquetNArDOnyDGNFUCes-39" edge="1">
          <mxGeometry width="50" height="50" relative="1" as="geometry">
            <mxPoint x="260" y="570" as="sourcePoint" />
            <mxPoint x="580" y="310" as="targetPoint" />
            <Array as="points">
              <mxPoint x="450" y="460" />
              <mxPoint x="400" y="470" />
              <mxPoint x="350" y="494" />
            </Array>
          </mxGeometry>
        </mxCell>
        <mxCell id="tquetNArDOnyDGNFUCes-18" value="" style="ellipse;whiteSpace=wrap;html=1;aspect=fixed;fillColor=#f8cecc;strokeColor=#b85450;" parent="1" vertex="1">
          <mxGeometry x="463" y="270" width="40" height="40" as="geometry" />
        </mxCell>
        <mxCell id="tquetNArDOnyDGNFUCes-22" style="edgeStyle=orthogonalEdgeStyle;rounded=1;orthogonalLoop=1;jettySize=auto;html=1;endSize=10;strokeWidth=4;endArrow=none;endFill=0;" parent="1" target="tquetNArDOnyDGNFUCes-18" edge="1">
          <mxGeometry relative="1" as="geometry">
            <mxPoint x="759.9999999999998" y="290" as="targetPoint" />
            <mxPoint x="150" y="290" as="sourcePoint" />
            <Array as="points" />
          </mxGeometry>
        </mxCell>
        <mxCell id="tquetNArDOnyDGNFUCes-23" value="" style="ellipse;whiteSpace=wrap;html=1;aspect=fixed;fillColor=#f8cecc;strokeColor=#b85450;" parent="1" vertex="1">
          <mxGeometry x="560" y="270" width="40" height="40" as="geometry" />
        </mxCell>
        <mxCell id="tquetNArDOnyDGNFUCes-24" style="edgeStyle=orthogonalEdgeStyle;rounded=1;orthogonalLoop=1;jettySize=auto;html=1;endSize=10;strokeWidth=4;endArrow=none;endFill=0;" parent="1" source="tquetNArDOnyDGNFUCes-18" target="tquetNArDOnyDGNFUCes-23" edge="1">
          <mxGeometry relative="1" as="geometry">
            <mxPoint x="759.9999999999998" y="290" as="targetPoint" />
            <mxPoint x="490" y="290" as="sourcePoint" />
            <Array as="points" />
          </mxGeometry>
        </mxCell>
        <mxCell id="tquetNArDOnyDGNFUCes-38" value="" style="edgeStyle=segmentEdgeStyle;endArrow=classic;html=1;strokeColor=#000000;strokeWidth=4;startSize=1;" parent="1" target="tquetNArDOnyDGNFUCes-39" edge="1">
          <mxGeometry width="50" height="50" relative="1" as="geometry">
            <mxPoint x="483" y="425" as="sourcePoint" />
            <mxPoint x="533" y="375" as="targetPoint" />
            <Array as="points">
              <mxPoint x="483" y="375" />
            </Array>
          </mxGeometry>
        </mxCell>
        <mxCell id="tquetNArDOnyDGNFUCes-39" value="" style="ellipse;whiteSpace=wrap;html=1;aspect=fixed;fillColor=#f8cecc;strokeColor=#b85450;" parent="1" vertex="1">
          <mxGeometry x="560" y="360" width="40" height="40" as="geometry" />
        </mxCell>
        <mxCell id="tquetNArDOnyDGNFUCes-40" value="" style="edgeStyle=elbowEdgeStyle;elbow=vertical;endArrow=classic;html=1;strokeWidth=4;" parent="1" target="tquetNArDOnyDGNFUCes-39" edge="1">
          <mxGeometry width="50" height="50" relative="1" as="geometry">
            <mxPoint x="260" y="570" as="sourcePoint" />
            <mxPoint x="580" y="310" as="targetPoint" />
            <Array as="points" />
          </mxGeometry>
        </mxCell>
        <mxCell id="tquetNArDOnyDGNFUCes-53" value="" style="edgeStyle=elbowEdgeStyle;elbow=horizontal;endArrow=none;html=1;strokeColor=#000000;strokeWidth=4;endFill=0;" parent="1" target="tquetNArDOnyDGNFUCes-51" edge="1">
          <mxGeometry width="50" height="50" relative="1" as="geometry">
            <mxPoint x="260" y="290" as="sourcePoint" />
            <mxPoint x="410" y="460" as="targetPoint" />
            <Array as="points">
              <mxPoint x="320" y="330" />
            </Array>
          </mxGeometry>
        </mxCell>
        <mxCell id="tquetNArDOnyDGNFUCes-56" value="" style="edgeStyle=elbowEdgeStyle;elbow=horizontal;endArrow=classic;html=1;strokeColor=#000000;strokeWidth=4;entryX=1;entryY=0.5;entryDx=0;entryDy=0;" parent="1" target="tquetNArDOnyDGNFUCes-51" edge="1">
          <mxGeometry width="50" height="50" relative="1" as="geometry">
            <mxPoint x="410" y="460" as="sourcePoint" />
            <mxPoint x="460" y="410" as="targetPoint" />
            <Array as="points">
              <mxPoint x="435" y="440" />
            </Array>
          </mxGeometry>
        </mxCell>
        <mxCell id="tquetNArDOnyDGNFUCes-47" value="" style="edgeStyle=elbowEdgeStyle;elbow=horizontal;endArrow=none;html=1;strokeColor=#000000;strokeWidth=4;endFill=0;" parent="1" edge="1">
          <mxGeometry width="50" height="50" relative="1" as="geometry">
            <mxPoint x="319" y="395.36491673103706" as="sourcePoint" />
            <mxPoint x="319" y="486" as="targetPoint" />
            <Array as="points" />
          </mxGeometry>
        </mxCell>
        <mxCell id="tquetNArDOnyDGNFUCes-27" value="" style="edgeStyle=elbowEdgeStyle;elbow=vertical;endArrow=classic;html=1;strokeWidth=4;strokeColor=#000000;startArrow=none;startFill=0;" parent="1" edge="1">
          <mxGeometry width="50" height="50" relative="1" as="geometry">
            <mxPoint x="254" y="290" as="sourcePoint" />
            <mxPoint x="484" y="310" as="targetPoint" />
            <Array as="points">
              <mxPoint x="370" y="460" />
            </Array>
          </mxGeometry>
        </mxCell>
        <mxCell id="tquetNArDOnyDGNFUCes-51" value="" style="ellipse;whiteSpace=wrap;html=1;aspect=fixed;fillColor=#f8cecc;strokeColor=#b85450;" parent="1" vertex="1">
          <mxGeometry x="300" y="360" width="40" height="40" as="geometry" />
        </mxCell>
        <mxCell id="tquetNArDOnyDGNFUCes-62" value="" style="edgeStyle=elbowEdgeStyle;elbow=horizontal;endArrow=none;html=1;strokeColor=#000000;strokeWidth=4;endFill=0;" parent="1" edge="1">
          <mxGeometry width="50" height="50" relative="1" as="geometry">
            <mxPoint x="263" y="460" as="sourcePoint" />
            <mxPoint x="258" y="500" as="targetPoint" />
          </mxGeometry>
        </mxCell>
        <mxCell id="tquetNArDOnyDGNFUCes-71" value="" style="rounded=0;whiteSpace=wrap;html=1;fillColor=#fff2cc;aspect=fixed;strokeColor=#d6b656;" parent="1" vertex="1">
          <mxGeometry x="463" y="415" width="40" height="20" as="geometry" />
        </mxCell>
        <mxCell id="tquetNArDOnyDGNFUCes-74" value="" style="rounded=0;whiteSpace=wrap;html=1;fillColor=#fff2cc;aspect=fixed;strokeColor=#d6b656;" parent="1" vertex="1">
          <mxGeometry x="560" y="425" width="40" height="20" as="geometry" />
        </mxCell>
        <mxCell id="tquetNArDOnyDGNFUCes-75" value="" style="rounded=0;whiteSpace=wrap;html=1;fillColor=#fff2cc;aspect=fixed;strokeColor=#d6b656;" parent="1" vertex="1">
          <mxGeometry x="410" y="415" width="40" height="20" as="geometry" />
        </mxCell>
        <mxCell id="tquetNArDOnyDGNFUCes-80" value="" style="ellipse;whiteSpace=wrap;html=1;fillColor=#f8cecc;strokeColor=#b85450;" parent="1" vertex="1">
          <mxGeometry x="461" y="335" width="43" height="20" as="geometry" />
        </mxCell>
        <mxCell id="tquetNArDOnyDGNFUCes-82" value="X" style="text;html=1;strokeColor=none;fillColor=none;align=center;verticalAlign=middle;whiteSpace=wrap;rounded=0;fontSize=24;" parent="1" vertex="1">
          <mxGeometry x="300" y="370" width="40" height="20" as="geometry" />
        </mxCell>
        <mxCell id="tquetNArDOnyDGNFUCes-83" value="X" style="text;html=1;strokeColor=none;fillColor=none;align=center;verticalAlign=middle;whiteSpace=wrap;rounded=0;fontSize=24;" parent="1" vertex="1">
          <mxGeometry x="463" y="280" width="40" height="20" as="geometry" />
        </mxCell>
        <mxCell id="tquetNArDOnyDGNFUCes-84" value="X" style="text;html=1;strokeColor=none;fillColor=none;align=center;verticalAlign=middle;whiteSpace=wrap;rounded=0;fontSize=24;" parent="1" vertex="1">
          <mxGeometry x="560" y="370" width="40" height="20" as="geometry" />
        </mxCell>
        <mxCell id="tquetNArDOnyDGNFUCes-85" value="+" style="text;html=1;strokeColor=none;fillColor=none;align=center;verticalAlign=middle;whiteSpace=wrap;rounded=0;fontSize=35;" parent="1" vertex="1">
          <mxGeometry x="560" y="280" width="40" height="20" as="geometry" />
        </mxCell>
        <mxCell id="tquetNArDOnyDGNFUCes-86" value="1-" style="text;html=1;strokeColor=none;fillColor=none;align=center;verticalAlign=middle;whiteSpace=wrap;rounded=0;fontSize=22;" parent="1" vertex="1">
          <mxGeometry x="462.5" y="335" width="40" height="20" as="geometry" />
        </mxCell>
        <mxCell id="tquetNArDOnyDGNFUCes-89" value="tanh" style="text;html=1;strokeColor=none;fillColor=none;align=center;verticalAlign=middle;whiteSpace=wrap;rounded=0;fontSize=16;" parent="1" vertex="1">
          <mxGeometry x="560" y="425" width="40" height="20" as="geometry" />
        </mxCell>
        <mxCell id="tquetNArDOnyDGNFUCes-93" value="&lt;span style=&quot;color: rgb(51 , 51 , 51) ; font-size: 22px ; white-space: normal&quot;&gt;σ&lt;/span&gt;" style="text;html=1;strokeColor=none;fillColor=none;align=center;verticalAlign=middle;whiteSpace=wrap;rounded=0;fontSize=22;" parent="1" vertex="1">
          <mxGeometry x="410" y="414" width="40" height="20" as="geometry" />
        </mxCell>
        <mxCell id="tquetNArDOnyDGNFUCes-94" value="&lt;span style=&quot;color: rgb(51 , 51 , 51) ; font-size: 22px ; white-space: normal&quot;&gt;σ&lt;/span&gt;" style="text;html=1;strokeColor=none;fillColor=none;align=center;verticalAlign=middle;whiteSpace=wrap;rounded=0;fontSize=22;" parent="1" vertex="1">
          <mxGeometry x="462.5" y="415" width="40" height="20" as="geometry" />
        </mxCell>
        <mxCell id="tquetNArDOnyDGNFUCes-95" value="&lt;h6&gt;&lt;span style=&quot;font-weight: normal&quot;&gt;&lt;span style=&quot;font-size: 26px&quot;&gt;h&lt;/span&gt;&lt;sub&gt;&lt;font style=&quot;font-size: 16px&quot;&gt;t-1&lt;/font&gt;&lt;/sub&gt;&lt;/span&gt;&lt;/h6&gt;" style="text;html=1;strokeColor=none;fillColor=none;align=center;verticalAlign=middle;whiteSpace=wrap;rounded=0;fontSize=26;fontFamily=Times New Roman;fontStyle=0;labelBorderColor=none;labelBackgroundColor=none;fontColor=#4D4D4D;" parent="1" vertex="1">
          <mxGeometry x="100" y="260" width="90" height="20" as="geometry" />
        </mxCell>
        <mxCell id="tquetNArDOnyDGNFUCes-98" value="&lt;h6&gt;&lt;span style=&quot;font-weight: normal&quot;&gt;&lt;span style=&quot;font-size: 26px&quot;&gt;h&lt;/span&gt;&lt;sub&gt;&lt;font style=&quot;font-size: 16px&quot;&gt;t&lt;/font&gt;&lt;/sub&gt;&lt;/span&gt;&lt;/h6&gt;" style="text;html=1;strokeColor=none;fillColor=none;align=center;verticalAlign=middle;whiteSpace=wrap;rounded=0;fontSize=26;fontFamily=Times New Roman;fontStyle=0;labelBorderColor=none;labelBackgroundColor=none;fontColor=#4D4D4D;" parent="1" vertex="1">
          <mxGeometry x="600" y="200" width="90" height="20" as="geometry" />
        </mxCell>
        <mxCell id="tquetNArDOnyDGNFUCes-99" value="&lt;h6&gt;&lt;span style=&quot;font-weight: normal&quot;&gt;&lt;sub&gt;&lt;font style=&quot;font-size: 26px&quot;&gt;x&lt;/font&gt;&lt;font style=&quot;font-size: 16px&quot;&gt;t&lt;/font&gt;&lt;/sub&gt;&lt;/span&gt;&lt;/h6&gt;" style="text;html=1;strokeColor=none;fillColor=none;align=center;verticalAlign=middle;whiteSpace=wrap;rounded=0;fontSize=26;fontFamily=Times New Roman;fontStyle=0;labelBorderColor=none;labelBackgroundColor=none;fontColor=#4D4D4D;" parent="1" vertex="1">
          <mxGeometry x="190" y="550" width="90" height="20" as="geometry" />
        </mxCell>
        <mxCell id="tquetNArDOnyDGNFUCes-102" value="&lt;h6&gt;&lt;span style=&quot;font-weight: normal&quot;&gt;&lt;sub&gt;&lt;font face=&quot;Garamond&quot;&gt;&lt;font style=&quot;font-size: 26px&quot;&gt;r&lt;/font&gt;&lt;font style=&quot;font-size: 16px&quot;&gt;t&lt;/font&gt;&lt;/font&gt;&lt;/sub&gt;&lt;/span&gt;&lt;/h6&gt;" style="text;html=1;strokeColor=none;fillColor=none;align=center;verticalAlign=middle;whiteSpace=wrap;rounded=0;fontSize=26;fontFamily=Times New Roman;fontStyle=0;labelBorderColor=none;labelBackgroundColor=none;fontColor=#4D4D4D;" parent="1" vertex="1">
          <mxGeometry x="350" y="390" width="90" height="20" as="geometry" />
        </mxCell>
        <mxCell id="tquetNArDOnyDGNFUCes-103" value="&lt;h6&gt;&lt;span style=&quot;font-weight: normal&quot;&gt;&lt;sub&gt;&lt;font face=&quot;Garamond&quot;&gt;&lt;font style=&quot;font-size: 26px&quot;&gt;z&lt;/font&gt;&lt;font style=&quot;font-size: 16px&quot;&gt;t&lt;/font&gt;&lt;/font&gt;&lt;/sub&gt;&lt;/span&gt;&lt;/h6&gt;" style="text;html=1;strokeColor=none;fillColor=none;align=center;verticalAlign=middle;whiteSpace=wrap;rounded=0;fontSize=26;fontFamily=Times New Roman;fontStyle=0;labelBorderColor=none;labelBackgroundColor=none;fontColor=#4D4D4D;" parent="1" vertex="1">
          <mxGeometry x="460" y="390" width="90" height="20" as="geometry" />
        </mxCell>
        <mxCell id="tquetNArDOnyDGNFUCes-106" value="&lt;font style=&quot;font-size: 21px&quot;&gt;&lt;span&gt;h&lt;/span&gt;&lt;sub&gt;t&lt;/sub&gt;&lt;span&gt;&amp;nbsp;̃&lt;/span&gt;&lt;/font&gt;" style="text;html=1;fontSize=26;fontFamily=Times New Roman;fontColor=#4D4D4D;" parent="1" vertex="1">
          <mxGeometry x="600" y="375" width="40" height="50" as="geometry" />
        </mxCell>
      </root>
    </mxGraphModel>
  </diagram>
  <diagram name="Page-2" id="_34a5UXS3G1B9xo6EiYX">
    <mxGraphModel dx="1052" dy="537" grid="1" gridSize="10" guides="1" tooltips="1" connect="1" arrows="1" fold="1" page="1" pageScale="1" pageWidth="827" pageHeight="1169" math="0" shadow="0">
      <root>
        <mxCell id="R4YcDA2mRaz1hFPC-GBh-0" />
        <mxCell id="R4YcDA2mRaz1hFPC-GBh-1" parent="R4YcDA2mRaz1hFPC-GBh-0" />
      </root>
    </mxGraphModel>
  </diagram>
  <diagram name="Page-1" id="EwGT_9SgcKuE0Qhqvyxb">
    <mxGraphModel dx="1052" dy="537" grid="1" gridSize="10" guides="1" tooltips="1" connect="1" arrows="1" fold="1" page="1" pageScale="1" pageWidth="850" pageHeight="1100" background="#ffffff" math="0" shadow="0">
      <root>
        <mxCell id="0" />
        <mxCell id="1" parent="0" />
      </root>
    </mxGraphModel>
  </diagram>
  <diagram name="Page-2" id="mUX9gd1PJiUVUpe6CEcK">
    <mxGraphModel dx="1052" dy="537" grid="1" gridSize="10" guides="1" tooltips="1" connect="1" arrows="1" fold="1" page="1" pageScale="1" pageWidth="827" pageHeight="1169" math="0" shadow="0">
      <root>
        <mxCell id="De9L45sVUt-sUUz_0YEY-0" />
        <mxCell id="De9L45sVUt-sUUz_0YEY-1" parent="De9L45sVUt-sUUz_0YEY-0" />
      </root>
    </mxGraphModel>
  </diagram>
  <diagram name="Page-1" id="TnCcDtILqXKAwZPA-RDz">
    <mxGraphModel dx="1052" dy="537" grid="1" gridSize="10" guides="1" tooltips="1" connect="1" arrows="1" fold="1" page="1" pageScale="1" pageWidth="1100" pageHeight="850" background="#ffffff" math="1" shadow="0">
      <root>
        <mxCell id="0" />
        <mxCell id="1" parent="0" />
        <mxCell id="tquetNArDOnyDGNFUCes-10" value="" style="rounded=1;whiteSpace=wrap;html=1;fillColor=#dae8fc;strokeColor=#6c8ebf;" parent="1" vertex="1">
          <mxGeometry x="210" y="244" width="500" height="280" as="geometry" />
        </mxCell>
        <mxCell id="tquetNArDOnyDGNFUCes-15" style="edgeStyle=orthogonalEdgeStyle;rounded=1;orthogonalLoop=1;jettySize=auto;html=1;endSize=10;strokeWidth=4;" parent="1" edge="1">
          <mxGeometry relative="1" as="geometry">
            <mxPoint x="760" y="290" as="targetPoint" />
            <mxPoint x="600" y="290.0000000000002" as="sourcePoint" />
            <Array as="points">
              <mxPoint x="660" y="290" />
              <mxPoint x="660" y="290" />
            </Array>
          </mxGeometry>
        </mxCell>
        <mxCell id="tquetNArDOnyDGNFUCes-16" value="" style="edgeStyle=segmentEdgeStyle;endArrow=classic;html=1;strokeWidth=4;endSize=10;" parent="1" edge="1">
          <mxGeometry width="50" height="50" relative="1" as="geometry">
            <mxPoint x="630" y="290" as="sourcePoint" />
            <mxPoint x="680" y="200" as="targetPoint" />
          </mxGeometry>
        </mxCell>
        <mxCell id="tquetNArDOnyDGNFUCes-18" value="" style="ellipse;whiteSpace=wrap;html=1;aspect=fixed;fillColor=#f8cecc;strokeColor=#b85450;" parent="1" vertex="1">
          <mxGeometry x="443" y="270" width="40" height="40" as="geometry" />
        </mxCell>
        <mxCell id="tquetNArDOnyDGNFUCes-22" style="edgeStyle=orthogonalEdgeStyle;rounded=1;orthogonalLoop=1;jettySize=auto;html=1;endSize=10;strokeWidth=4;endArrow=none;endFill=0;" parent="1" target="tquetNArDOnyDGNFUCes-18" edge="1">
          <mxGeometry relative="1" as="geometry">
            <mxPoint x="759.9999999999998" y="290" as="targetPoint" />
            <mxPoint x="150" y="290" as="sourcePoint" />
            <Array as="points" />
          </mxGeometry>
        </mxCell>
        <mxCell id="tquetNArDOnyDGNFUCes-24" style="edgeStyle=orthogonalEdgeStyle;rounded=1;orthogonalLoop=1;jettySize=auto;html=1;endSize=10;strokeWidth=4;endArrow=none;endFill=0;" parent="1" source="tquetNArDOnyDGNFUCes-18" edge="1">
          <mxGeometry relative="1" as="geometry">
            <mxPoint x="620" y="290" as="targetPoint" />
            <mxPoint x="490" y="290" as="sourcePoint" />
            <Array as="points" />
          </mxGeometry>
        </mxCell>
        <mxCell id="tquetNArDOnyDGNFUCes-40" value="" style="edgeStyle=elbowEdgeStyle;elbow=vertical;endArrow=classic;html=1;strokeWidth=4;targetPerimeterSpacing=0;" parent="1" edge="1">
          <mxGeometry width="50" height="50" relative="1" as="geometry">
            <mxPoint x="260" y="545.62" as="sourcePoint" />
            <mxPoint x="576" y="428.37" as="targetPoint" />
            <Array as="points" />
          </mxGeometry>
        </mxCell>
        <mxCell id="tquetNArDOnyDGNFUCes-47" value="" style="edgeStyle=elbowEdgeStyle;elbow=horizontal;endArrow=none;html=1;strokeColor=#000000;strokeWidth=2;endFill=0;" parent="1" source="3wvSLgCd3n9QOH5ddJi3-21" edge="1">
          <mxGeometry width="50" height="50" relative="1" as="geometry">
            <mxPoint x="319" y="395.36491673103706" as="sourcePoint" />
            <mxPoint x="319" y="486" as="targetPoint" />
            <Array as="points" />
          </mxGeometry>
        </mxCell>
        <mxCell id="tquetNArDOnyDGNFUCes-74" value="" style="rounded=0;whiteSpace=wrap;html=1;fillColor=#fff2cc;aspect=fixed;strokeColor=#d6b656;" parent="1" vertex="1">
          <mxGeometry x="558" y="415" width="40" height="20" as="geometry" />
        </mxCell>
        <mxCell id="tquetNArDOnyDGNFUCes-85" value="+" style="text;html=1;strokeColor=none;fillColor=none;align=center;verticalAlign=middle;whiteSpace=wrap;rounded=0;fontSize=35;fontFamily=Times New Roman;" parent="1" vertex="1">
          <mxGeometry x="444" y="280" width="40" height="20" as="geometry" />
        </mxCell>
        <mxCell id="3wvSLgCd3n9QOH5ddJi3-8" value="" style="ellipse;whiteSpace=wrap;html=1;aspect=fixed;fillColor=#f8cecc;strokeColor=#b85450;" parent="1" vertex="1">
          <mxGeometry x="117" y="460" width="50" height="50" as="geometry" />
        </mxCell>
        <mxCell id="3wvSLgCd3n9QOH5ddJi3-9" value="" style="ellipse;whiteSpace=wrap;html=1;aspect=fixed;fillColor=#f8cecc;strokeColor=#b85450;" parent="1" vertex="1">
          <mxGeometry x="660" y="150" width="50" height="50" as="geometry" />
        </mxCell>
        <mxCell id="3wvSLgCd3n9QOH5ddJi3-10" value="" style="ellipse;whiteSpace=wrap;html=1;aspect=fixed;fillColor=#f8cecc;strokeColor=#b85450;" parent="1" vertex="1">
          <mxGeometry x="766" y="461" width="50" height="50" as="geometry" />
        </mxCell>
        <mxCell id="3wvSLgCd3n9QOH5ddJi3-11" value="" style="ellipse;whiteSpace=wrap;html=1;aspect=fixed;fillColor=#f8cecc;strokeColor=#b85450;" parent="1" vertex="1">
          <mxGeometry x="238" y="540" width="50" height="50" as="geometry" />
        </mxCell>
        <mxCell id="tquetNArDOnyDGNFUCes-95" value="&lt;h6&gt;&lt;span style=&quot;font-weight: normal&quot;&gt;&lt;span style=&quot;font-size: 26px&quot;&gt;h&lt;/span&gt;&lt;sub&gt;&lt;font style=&quot;font-size: 16px&quot;&gt;t-1&lt;/font&gt;&lt;/sub&gt;&lt;/span&gt;&lt;/h6&gt;" style="text;html=1;strokeColor=none;fillColor=none;align=center;verticalAlign=middle;whiteSpace=wrap;rounded=0;fontSize=26;fontFamily=Times New Roman;fontStyle=0;labelBorderColor=none;labelBackgroundColor=none;fontColor=#4D4D4D;" parent="1" vertex="1">
          <mxGeometry x="124" y="475" width="40" height="20" as="geometry" />
        </mxCell>
        <mxCell id="tquetNArDOnyDGNFUCes-99" value="&lt;h6&gt;&lt;span style=&quot;font-weight: normal&quot;&gt;&lt;sub&gt;&lt;font style=&quot;font-size: 26px&quot;&gt;x&lt;/font&gt;&lt;font style=&quot;font-size: 16px&quot;&gt;t&lt;/font&gt;&lt;/sub&gt;&lt;/span&gt;&lt;/h6&gt;" style="text;html=1;strokeColor=none;fillColor=none;align=center;verticalAlign=middle;whiteSpace=wrap;rounded=0;fontSize=26;fontFamily=Times New Roman;fontStyle=0;labelBorderColor=none;labelBackgroundColor=none;fontColor=#4D4D4D;" parent="1" vertex="1">
          <mxGeometry x="218" y="552" width="90" height="20" as="geometry" />
        </mxCell>
        <mxCell id="tquetNArDOnyDGNFUCes-98" value="&lt;h6&gt;&lt;span style=&quot;font-weight: normal&quot;&gt;&lt;span style=&quot;font-size: 26px&quot;&gt;h&lt;/span&gt;&lt;sub&gt;&lt;font style=&quot;font-size: 16px&quot;&gt;t&lt;/font&gt;&lt;/sub&gt;&lt;/span&gt;&lt;/h6&gt;" style="text;html=1;strokeColor=none;fillColor=none;align=center;verticalAlign=middle;whiteSpace=wrap;rounded=0;fontSize=26;fontFamily=Times New Roman;fontStyle=0;labelBorderColor=none;labelBackgroundColor=none;fontColor=#4D4D4D;" parent="1" vertex="1">
          <mxGeometry x="640" y="165" width="90" height="20" as="geometry" />
        </mxCell>
        <mxCell id="3wvSLgCd3n9QOH5ddJi3-16" value="&lt;h6&gt;&lt;span style=&quot;font-weight: normal&quot;&gt;&lt;span style=&quot;font-size: 26px&quot;&gt;h&lt;/span&gt;&lt;sub&gt;&lt;font style=&quot;font-size: 16px&quot;&gt;t&lt;/font&gt;&lt;/sub&gt;&lt;/span&gt;&lt;/h6&gt;" style="text;html=1;strokeColor=none;fillColor=none;align=center;verticalAlign=middle;whiteSpace=wrap;rounded=0;fontSize=26;fontFamily=Times New Roman;fontStyle=0;labelBorderColor=none;labelBackgroundColor=none;fontColor=#4D4D4D;" parent="1" vertex="1">
          <mxGeometry x="769" y="476" width="44" height="20" as="geometry" />
        </mxCell>
        <mxCell id="3wvSLgCd3n9QOH5ddJi3-17" value="C&lt;sub style=&quot;font-size: 20px;&quot;&gt;t-1&lt;/sub&gt;" style="text;html=1;strokeColor=none;fillColor=none;align=center;verticalAlign=middle;whiteSpace=wrap;rounded=0;fontFamily=Times New Roman;fontSize=20;" parent="1" vertex="1">
          <mxGeometry x="100" y="280" width="40" height="20" as="geometry" />
        </mxCell>
        <mxCell id="3wvSLgCd3n9QOH5ddJi3-18" value="C&lt;sub style=&quot;font-size: 20px&quot;&gt;t&lt;/sub&gt;" style="text;html=1;strokeColor=none;fillColor=none;align=center;verticalAlign=middle;whiteSpace=wrap;rounded=0;fontFamily=Times New Roman;fontSize=20;" parent="1" vertex="1">
          <mxGeometry x="760" y="280" width="40" height="20" as="geometry" />
        </mxCell>
        <mxCell id="3wvSLgCd3n9QOH5ddJi3-19" value="" style="ellipse;whiteSpace=wrap;html=1;aspect=fixed;fontFamily=Times New Roman;fontSize=20;fillColor=#f8cecc;strokeColor=#b85450;" parent="1" vertex="1">
          <mxGeometry x="300" y="260" width="40" height="40" as="geometry" />
        </mxCell>
        <mxCell id="3wvSLgCd3n9QOH5ddJi3-21" value="" style="rounded=0;whiteSpace=wrap;html=1;fontFamily=Times New Roman;fontSize=20;fillColor=#fff2cc;strokeColor=#d6b656;" parent="1" vertex="1">
          <mxGeometry x="300" y="414" width="40" height="20" as="geometry" />
        </mxCell>
        <mxCell id="3wvSLgCd3n9QOH5ddJi3-24" value="" style="endArrow=classic;html=1;strokeWidth=2;fontFamily=Times New Roman;fontSize=20;" parent="1" edge="1">
          <mxGeometry width="50" height="50" relative="1" as="geometry">
            <mxPoint x="320" y="413" as="sourcePoint" />
            <mxPoint x="319.58000000000004" y="299" as="targetPoint" />
          </mxGeometry>
        </mxCell>
        <mxCell id="tquetNArDOnyDGNFUCes-82" value="X" style="text;html=1;strokeColor=none;fillColor=none;align=center;verticalAlign=middle;whiteSpace=wrap;rounded=0;fontSize=20;fontFamily=Times New Roman;" parent="1" vertex="1">
          <mxGeometry x="306" y="270" width="30" height="20" as="geometry" />
        </mxCell>
        <mxCell id="3wvSLgCd3n9QOH5ddJi3-27" value="" style="endArrow=classic;html=1;strokeWidth=2;fontFamily=Times New Roman;fontSize=20;" parent="1" source="3wvSLgCd3n9QOH5ddJi3-37" edge="1">
          <mxGeometry width="50" height="50" relative="1" as="geometry">
            <mxPoint x="461.07" y="485" as="sourcePoint" />
            <mxPoint x="461" y="310" as="targetPoint" />
          </mxGeometry>
        </mxCell>
        <mxCell id="3wvSLgCd3n9QOH5ddJi3-38" value="" style="endArrow=none;html=1;strokeWidth=2;fontFamily=Times New Roman;fontSize=20;endFill=0;" parent="1" edge="1">
          <mxGeometry width="50" height="50" relative="1" as="geometry">
            <mxPoint x="463" y="482" as="sourcePoint" />
            <mxPoint x="463.17282633536" y="379.9989331641534" as="targetPoint" />
          </mxGeometry>
        </mxCell>
        <mxCell id="3wvSLgCd3n9QOH5ddJi3-37" value="" style="ellipse;whiteSpace=wrap;html=1;aspect=fixed;fontFamily=Times New Roman;fontSize=20;fillColor=#f8cecc;strokeColor=#b85450;" parent="1" vertex="1">
          <mxGeometry x="449" y="350" width="28" height="28" as="geometry" />
        </mxCell>
        <mxCell id="3wvSLgCd3n9QOH5ddJi3-36" value="X" style="text;html=1;strokeColor=none;fillColor=none;align=center;verticalAlign=middle;whiteSpace=wrap;rounded=0;fontSize=20;fontFamily=Times New Roman;" parent="1" vertex="1">
          <mxGeometry x="444" y="354" width="40" height="20" as="geometry" />
        </mxCell>
        <mxCell id="tquetNArDOnyDGNFUCes-71" value="" style="rounded=0;whiteSpace=wrap;html=1;fillColor=#fff2cc;aspect=fixed;strokeColor=#d6b656;" parent="1" vertex="1">
          <mxGeometry x="443" y="415" width="40" height="20" as="geometry" />
        </mxCell>
        <mxCell id="3wvSLgCd3n9QOH5ddJi3-32" value="tanh" style="text;html=1;strokeColor=none;fillColor=none;align=center;verticalAlign=middle;whiteSpace=wrap;rounded=0;fontFamily=Times New Roman;fontSize=20;" parent="1" vertex="1">
          <mxGeometry x="443" y="414" width="40" height="20" as="geometry" />
        </mxCell>
        <mxCell id="3wvSLgCd3n9QOH5ddJi3-45" value="" style="edgeStyle=segmentEdgeStyle;endArrow=classic;html=1;strokeWidth=2;fontFamily=Times New Roman;fontSize=20;" parent="1" edge="1">
          <mxGeometry width="50" height="50" relative="1" as="geometry">
            <mxPoint x="410" y="370" as="sourcePoint" />
            <mxPoint x="449" y="370" as="targetPoint" />
          </mxGeometry>
        </mxCell>
        <mxCell id="3wvSLgCd3n9QOH5ddJi3-47" value="" style="line;strokeWidth=2;html=1;perimeter=backbonePerimeter;points=[];outlineConnect=0;fontFamily=Times New Roman;fontSize=20;rotation=-90;" parent="1" vertex="1">
          <mxGeometry x="350" y="425.49999999999994" width="120" height="7.5" as="geometry" />
        </mxCell>
        <mxCell id="tquetNArDOnyDGNFUCes-75" value="" style="rounded=0;whiteSpace=wrap;html=1;fillColor=#fff2cc;aspect=fixed;strokeColor=#d6b656;" parent="1" vertex="1">
          <mxGeometry x="385" y="415" width="40" height="20" as="geometry" />
        </mxCell>
        <mxCell id="tquetNArDOnyDGNFUCes-93" value="&lt;span style=&quot;color: rgb(51 , 51 , 51) ; font-size: 22px ; white-space: normal&quot;&gt;σ&lt;/span&gt;" style="text;html=1;strokeColor=none;fillColor=none;align=center;verticalAlign=middle;whiteSpace=wrap;rounded=0;fontSize=22;fontFamily=Times New Roman;" parent="1" vertex="1">
          <mxGeometry x="385" y="415" width="40" height="20" as="geometry" />
        </mxCell>
        <mxCell id="3wvSLgCd3n9QOH5ddJi3-51" value="" style="line;strokeWidth=4;html=1;fontFamily=Times New Roman;fontSize=20;" parent="1" vertex="1">
          <mxGeometry x="167" y="482" width="100" height="10" as="geometry" />
        </mxCell>
        <mxCell id="3wvSLgCd3n9QOH5ddJi3-62" value="" style="edgeStyle=segmentEdgeStyle;endArrow=classic;html=1;strokeWidth=2;fontFamily=Times New Roman;fontSize=20;" parent="1" edge="1">
          <mxGeometry width="50" height="50" relative="1" as="geometry">
            <mxPoint x="578" y="367" as="sourcePoint" />
            <mxPoint x="617" y="367" as="targetPoint" />
          </mxGeometry>
        </mxCell>
        <mxCell id="3wvSLgCd3n9QOH5ddJi3-63" value="" style="line;strokeWidth=2;html=1;perimeter=backbonePerimeter;points=[];outlineConnect=0;fontFamily=Times New Roman;fontSize=20;rotation=-90;" parent="1" vertex="1">
          <mxGeometry x="552" y="387.5" width="50" height="7.5" as="geometry" />
        </mxCell>
        <mxCell id="3wvSLgCd3n9QOH5ddJi3-54" value="&lt;span style=&quot;color: rgb(51 , 51 , 51)&quot;&gt;σ&lt;/span&gt;" style="text;html=1;strokeColor=none;fillColor=none;align=center;verticalAlign=middle;whiteSpace=wrap;rounded=0;fontSize=22;fontFamily=Times New Roman;" parent="1" vertex="1">
          <mxGeometry x="558" y="414" width="40" height="20" as="geometry" />
        </mxCell>
        <mxCell id="3wvSLgCd3n9QOH5ddJi3-73" value="" style="endArrow=none;html=1;strokeWidth=2;fontFamily=Times New Roman;fontSize=18;" parent="1" edge="1">
          <mxGeometry width="50" height="50" relative="1" as="geometry">
            <mxPoint x="628.79" y="492" as="sourcePoint" />
            <mxPoint x="628.86" y="292" as="targetPoint" />
          </mxGeometry>
        </mxCell>
        <mxCell id="3wvSLgCd3n9QOH5ddJi3-72" value="" style="rounded=0;whiteSpace=wrap;html=1;strokeWidth=1;fontFamily=Times New Roman;fontSize=20;fillColor=#fff2cc;strokeColor=#d6b656;" parent="1" vertex="1">
          <mxGeometry x="609.5" y="310" width="40" height="20" as="geometry" />
        </mxCell>
        <mxCell id="3wvSLgCd3n9QOH5ddJi3-59" value="" style="ellipse;whiteSpace=wrap;html=1;aspect=fixed;fillColor=#f8cecc;strokeColor=#b85450;" parent="1" vertex="1">
          <mxGeometry x="617" y="354" width="25" height="25" as="geometry" />
        </mxCell>
        <mxCell id="3wvSLgCd3n9QOH5ddJi3-57" value="X" style="text;html=1;strokeColor=none;fillColor=none;align=center;verticalAlign=middle;whiteSpace=wrap;rounded=0;fontSize=18;fontFamily=Times New Roman;" parent="1" vertex="1">
          <mxGeometry x="609.5" y="356.5" width="40" height="20" as="geometry" />
        </mxCell>
        <mxCell id="3wvSLgCd3n9QOH5ddJi3-56" value="tanh" style="text;html=1;strokeColor=none;fillColor=none;align=center;verticalAlign=middle;whiteSpace=wrap;rounded=0;fontSize=16;fontFamily=Times New Roman;" parent="1" vertex="1">
          <mxGeometry x="609.5" y="310" width="40" height="20" as="geometry" />
        </mxCell>
        <mxCell id="3wvSLgCd3n9QOH5ddJi3-74" value="" style="endArrow=classic;html=1;strokeWidth=2;fontFamily=Times New Roman;fontSize=18;entryX=0;entryY=0.75;entryDx=0;entryDy=0;" parent="1" target="3wvSLgCd3n9QOH5ddJi3-16" edge="1">
          <mxGeometry width="50" height="50" relative="1" as="geometry">
            <mxPoint x="630" y="490.57" as="sourcePoint" />
            <mxPoint x="700.5" y="490.57" as="targetPoint" />
          </mxGeometry>
        </mxCell>
        <mxCell id="3wvSLgCd3n9QOH5ddJi3-76" value="" style="endArrow=none;html=1;strokeWidth=4;fontFamily=Times New Roman;fontSize=18;" parent="1" edge="1">
          <mxGeometry width="50" height="50" relative="1" as="geometry">
            <mxPoint x="679" y="490" as="sourcePoint" />
            <mxPoint x="679.0700000000002" y="290" as="targetPoint" />
          </mxGeometry>
        </mxCell>
        <mxCell id="3wvSLgCd3n9QOH5ddJi3-20" value="&lt;span style=&quot;color: rgb(51 , 51 , 51)&quot;&gt;σ&lt;/span&gt;" style="text;html=1;strokeColor=none;fillColor=none;align=center;verticalAlign=middle;whiteSpace=wrap;rounded=0;fontSize=22;fontFamily=Times New Roman;" parent="1" vertex="1">
          <mxGeometry x="300" y="414" width="40" height="20" as="geometry" />
        </mxCell>
      </root>
    </mxGraphModel>
  </diagram>
  <diagram name="Page-2" id="HS-41sxvYa6cYz13Ba-c">
    <mxGraphModel dx="1052" dy="537" grid="1" gridSize="10" guides="1" tooltips="1" connect="1" arrows="1" fold="1" page="1" pageScale="1" pageWidth="827" pageHeight="1169" math="0" shadow="0">
      <root>
        <mxCell id="R4YcDA2mRaz1hFPC-GBh-0" />
        <mxCell id="R4YcDA2mRaz1hFPC-GBh-1" parent="R4YcDA2mRaz1hFPC-GBh-0" />
      </root>
    </mxGraphModel>
  </diagram>
</mxfile>
